<svg xmlns="http://www.w3.org/2000/svg" width="1320" height="1760" viewBox="0 0 1320 1760" font-family="-apple-system,BlinkMacSystemFont,Segoe UI,Roboto,Helvetica,Arial,sans-serif"><rect width="1320" height="1760" fill="#0e1014"/><g transform="translate(40,34)">
<path d="M0,867.5C95,867.5 95,90 190,90" fill="none" stroke="#2b313d" stroke-width="1.6"/>
<path d="M0,867.5C95,867.5 95,292 190,292" fill="none" stroke="#2b313d" stroke-width="1.6"/>
<path d="M0,867.5C95,867.5 95,449 190,449" fill="none" stroke="#2b313d" stroke-width="1.6"/>
<path d="M0,867.5C95,867.5 95,561 190,561" fill="none" stroke="#2b313d" stroke-width="1.6"/>
<path d="M0,867.5C95,867.5 95,643 190,643" fill="none" stroke="#2b313d" stroke-width="1.6"/>
<path d="M0,867.5C95,867.5 95,755 190,755" fill="none" stroke="#2b313d" stroke-width="1.6"/>
<path d="M0,867.5C95,867.5 95,897 190,897" fill="none" stroke="#2b313d" stroke-width="1.6"/>
<path d="M0,867.5C95,867.5 95,1099 190,1099" fill="none" stroke="#2b313d" stroke-width="1.6"/>
<path d="M0,867.5C95,867.5 95,1271 190,1271" fill="none" stroke="#2b313d" stroke-width="1.6"/>
<path d="M0,867.5C95,867.5 95,1443 190,1443" fill="none" stroke="#2b313d" stroke-width="1.6"/>
<path d="M0,867.5C95,867.5 95,1645 190,1645" fill="none" stroke="#2b313d" stroke-width="1.6"/>
<path d="M190,90C365,90 365,0 540,0" fill="none" stroke="#2b313d" stroke-width="1.6"/>
<path d="M190,90C365,90 365,30 540,30" fill="none" stroke="#2b313d" stroke-width="1.6"/>
<path d="M190,90C365,90 365,60 540,60" fill="none" stroke="#2b313d" stroke-width="1.6"/>
<path d="M190,90C365,90 365,90 540,90" fill="none" stroke="#2b313d" stroke-width="1.6"/>
<path d="M190,90C365,90 365,120 540,120" fill="none" stroke="#2b313d" stroke-width="1.6"/>
<path d="M190,90C365,90 365,150 540,150" fill="none" stroke="#2b313d" stroke-width="1.6"/>
<path d="M190,90C365,90 365,180 540,180" fill="none" stroke="#2b313d" stroke-width="1.6"/>
<path d="M190,292C365,292 365,232 540,232" fill="none" stroke="#2b313d" stroke-width="1.6"/>
<path d="M190,292C365,292 365,262 540,262" fill="none" stroke="#2b313d" stroke-width="1.6"/>
<path d="M190,292C365,292 365,292 540,292" fill="none" stroke="#2b313d" stroke-width="1.6"/>
<path d="M190,292C365,292 365,322 540,322" fill="none" stroke="#2b313d" stroke-width="1.6"/>
<path d="M190,292C365,292 365,352 540,352" fill="none" stroke="#2b313d" stroke-width="1.6"/>
<path d="M190,449C365,449 365,404 540,404" fill="none" stroke="#2b313d" stroke-width="1.6"/>
<path d="M190,449C365,449 365,434 540,434" fill="none" stroke="#2b313d" stroke-width="1.6"/>
<path d="M190,449C365,449 365,464 540,464" fill="none" stroke="#2b313d" stroke-width="1.6"/>
<path d="M190,449C365,449 365,494 540,494" fill="none" stroke="#2b313d" stroke-width="1.6"/>
<path d="M190,561C365,561 365,546 540,546" fill="none" stroke="#2b313d" stroke-width="1.6"/>
<path d="M190,561C365,561 365,576 540,576" fill="none" stroke="#2b313d" stroke-width="1.6"/>
<path d="M190,643C365,643 365,628 540,628" fill="none" stroke="#2b313d" stroke-width="1.6"/>
<path d="M190,643C365,643 365,658 540,658" fill="none" stroke="#2b313d" stroke-width="1.6"/>
<path d="M190,755C365,755 365,710 540,710" fill="none" stroke="#2b313d" stroke-width="1.6"/>
<path d="M190,755C365,755 365,740 540,740" fill="none" stroke="#2b313d" stroke-width="1.6"/>
<path d="M190,755C365,755 365,770 540,770" fill="none" stroke="#2b313d" stroke-width="1.6"/>
<path d="M190,755C365,755 365,800 540,800" fill="none" stroke="#2b313d" stroke-width="1.6"/>
<path d="M190,897C365,897 365,852 540,852" fill="none" stroke="#2b313d" stroke-width="1.6"/>
<path d="M190,897C365,897 365,882 540,882" fill="none" stroke="#2b313d" stroke-width="1.6"/>
<path d="M190,897C365,897 365,912 540,912" fill="none" stroke="#2b313d" stroke-width="1.6"/>
<path d="M190,897C365,897 365,942 540,942" fill="none" stroke="#2b313d" stroke-width="1.6"/>
<path d="M190,1099C365,1099 365,994 540,994" fill="none" stroke="#2b313d" stroke-width="1.6"/>
<path d="M190,1099C365,1099 365,1024 540,1024" fill="none" stroke="#2b313d" stroke-width="1.6"/>
<path d="M190,1099C365,1099 365,1054 540,1054" fill="none" stroke="#2b313d" stroke-width="1.6"/>
<path d="M190,1099C365,1099 365,1084 540,1084" fill="none" stroke="#2b313d" stroke-width="1.6"/>
<path d="M190,1099C365,1099 365,1114 540,1114" fill="none" stroke="#2b313d" stroke-width="1.6"/>
<path d="M190,1099C365,1099 365,1144 540,1144" fill="none" stroke="#2b313d" stroke-width="1.6"/>
<path d="M190,1099C365,1099 365,1174 540,1174" fill="none" stroke="#2b313d" stroke-width="1.6"/>
<path d="M190,1099C365,1099 365,1204 540,1204" fill="none" stroke="#2b313d" stroke-width="1.6"/>
<path d="M190,1271C365,1271 365,1256 540,1256" fill="none" stroke="#2b313d" stroke-width="1.6"/>
<path d="M190,1271C365,1271 365,1286 540,1286" fill="none" stroke="#2b313d" stroke-width="1.6"/>
<path d="M190,1443C365,1443 365,1338 540,1338" fill="none" stroke="#2b313d" stroke-width="1.6"/>
<path d="M190,1443C365,1443 365,1368 540,1368" fill="none" stroke="#2b313d" stroke-width="1.6"/>
<path d="M190,1443C365,1443 365,1398 540,1398" fill="none" stroke="#2b313d" stroke-width="1.6"/>
<path d="M190,1443C365,1443 365,1428 540,1428" fill="none" stroke="#2b313d" stroke-width="1.6"/>
<path d="M190,1443C365,1443 365,1458 540,1458" fill="none" stroke="#2b313d" stroke-width="1.6"/>
<path d="M190,1443C365,1443 365,1488 540,1488" fill="none" stroke="#2b313d" stroke-width="1.6"/>
<path d="M190,1443C365,1443 365,1518 540,1518" fill="none" stroke="#2b313d" stroke-width="1.6"/>
<path d="M190,1443C365,1443 365,1548 540,1548" fill="none" stroke="#2b313d" stroke-width="1.6"/>
<path d="M190,1645C365,1645 365,1600 540,1600" fill="none" stroke="#2b313d" stroke-width="1.6"/>
<path d="M190,1645C365,1645 365,1630 540,1630" fill="none" stroke="#2b313d" stroke-width="1.6"/>
<path d="M190,1645C365,1645 365,1660 540,1660" fill="none" stroke="#2b313d" stroke-width="1.6"/>
<path d="M190,1645C365,1645 365,1690 540,1690" fill="none" stroke="#2b313d" stroke-width="1.6"/>
<circle cx="0" cy="867.5" r="7" fill="#6ea8fe"/><text x="15" y="867.5" fill="#e8ecf3" font-size="13" font-weight="700" dominant-baseline="middle">My Work</text>
<rect x="182" y="75" rx="9" width="155.60000000000002" height="30" fill="#1d212a" stroke="#2b313d"/><text x="194" y="91" fill="#8a93a5" font-size="10" dominant-baseline="middle">&#9660;</text><text x="210" y="86" fill="#e8ecf3" font-size="14" font-weight="650" dominant-baseline="middle">The 21cm paper</text><text x="210" y="98" fill="#8a93a5" font-size="10" dominant-baseline="middle">3/7 done</text>
<circle cx="540" cy="0" r="6.5" fill="#7d879b"/>
<text x="556" y="0" fill="#e8ecf3" font-size="13" dominant-baseline="middle">Read and revise the paper text</text>
<circle cx="540" cy="30" r="6.5" fill="#7d879b"/>
<text x="556" y="30" fill="#e8ecf3" font-size="13" dominant-baseline="middle">Releasing the code and documentation publicly</text>
<circle cx="540" cy="60" r="6.5" fill="#7d879b"/>
<text x="556" y="60" fill="#e8ecf3" font-size="13" dominant-baseline="middle">Ask Barry Barish for approval on their name</text>
<circle cx="540" cy="90" r="6.5" fill="#7d879b"/>
<text x="556" y="90" fill="#e8ecf3" font-size="13" dominant-baseline="middle">Follow up with Bahram about feedback</text>
<circle cx="540" cy="120" r="6.5" fill="#3fbf7f"/>
<text x="556" y="120" fill="#8a93a5" font-size="13" dominant-baseline="middle" text-decoration="line-through">Find a journal to submit</text>
<circle cx="540" cy="150" r="6.5" fill="#3fbf7f"/>
<text x="556" y="150" fill="#8a93a5" font-size="13" dominant-baseline="middle" text-decoration="line-through">Check the package against data other than EDGES, such as SARAS</text>
<circle cx="540" cy="180" r="6.5" fill="#3fbf7f"/>
<text x="556" y="180" fill="#8a93a5" font-size="13" dominant-baseline="middle" text-decoration="line-through">Make a parameter estimation package based on MSc thesis</text>
<rect x="182" y="277" rx="9" width="306.8" height="30" fill="#1d212a" stroke="#2b313d"/><text x="194" y="293" fill="#8a93a5" font-size="10" dominant-baseline="middle">&#9660;</text><text x="210" y="288" fill="#e8ecf3" font-size="14" font-weight="650" dominant-baseline="middle">The classical benchmarking paper</text><text x="210" y="300" fill="#8a93a5" font-size="10" dominant-baseline="middle">0/5 done</text>
<circle cx="540" cy="232" r="6.5" fill="#7d879b"/>
<text x="556" y="232" fill="#e8ecf3" font-size="13" dominant-baseline="middle">Check all the bibtex entries</text>
<circle cx="540" cy="262" r="6.5" fill="#7d879b"/>
<text x="556" y="262" fill="#e8ecf3" font-size="13" dominant-baseline="middle">Send the corrected version to Joshua Bloom</text>
<circle cx="540" cy="292" r="6.5" fill="#7d879b"/>
<text x="556" y="292" fill="#e8ecf3" font-size="13" dominant-baseline="middle">Send to co-authors</text>
<circle cx="540" cy="322" r="6.5" fill="#7d879b"/>
<text x="556" y="322" fill="#e8ecf3" font-size="13" dominant-baseline="middle">Implement the comments</text>
<circle cx="540" cy="352" r="6.5" fill="#7d879b"/>
<text x="556" y="352" fill="#e8ecf3" font-size="13" dominant-baseline="middle">Research how to make official benchmarks</text>
<rect x="182" y="434" rx="9" width="332" height="30" fill="#1d212a" stroke="#2b313d"/><text x="194" y="450" fill="#8a93a5" font-size="10" dominant-baseline="middle">&#9660;</text><text x="210" y="445" fill="#e8ecf3" font-size="14" font-weight="650" dominant-baseline="middle">The Roman Super-resolution Projects</text><text x="210" y="457" fill="#8a93a5" font-size="10" dominant-baseline="middle">3/4 done</text>
<circle cx="540" cy="404" r="6.5" fill="#7d879b"/>
<text x="556" y="404" fill="#e8ecf3" font-size="13" dominant-baseline="middle">Writing the paper</text>
<circle cx="540" cy="434" r="6.5" fill="#3fbf7f"/>
<text x="556" y="429" fill="#8a93a5" font-size="13" dominant-baseline="middle" text-decoration="line-through">Talk</text>
<text x="556" y="442" fill="#8a93a5" font-size="10" dominant-baseline="middle">2026-07-17</text>
<circle cx="540" cy="464" r="6.5" fill="#3fbf7f"/>
<text x="556" y="459" fill="#8a93a5" font-size="13" dominant-baseline="middle" text-decoration="line-through">Try to get results before the talk</text>
<text x="556" y="472" fill="#8a93a5" font-size="10" dominant-baseline="middle">2026-07-17</text>
<circle cx="540" cy="494" r="6.5" fill="#3fbf7f"/>
<text x="556" y="489" fill="#8a93a5" font-size="13" dominant-baseline="middle" text-decoration="line-through">Making the slides</text>
<text x="556" y="502" fill="#8a93a5" font-size="10" dominant-baseline="middle">2026-07-15</text>
<rect x="182" y="546" rx="9" width="197.6" height="30" fill="#1d212a" stroke="#2b313d"/><text x="194" y="562" fill="#8a93a5" font-size="10" dominant-baseline="middle">&#9660;</text><text x="210" y="557" fill="#e8ecf3" font-size="14" font-weight="650" dominant-baseline="middle">Lyman-alpha project</text><text x="210" y="569" fill="#8a93a5" font-size="10" dominant-baseline="middle">1/2 done</text>
<circle cx="540" cy="546" r="6.5" fill="#7d879b"/>
<text x="556" y="546" fill="#e8ecf3" font-size="13" dominant-baseline="middle">Do we need to get the whole data set from Anson?</text>
<circle cx="540" cy="576" r="6.5" fill="#3fbf7f"/>
<text x="556" y="576" fill="#8a93a5" font-size="13" dominant-baseline="middle" text-decoration="line-through">Follow up on the training (why the training did not work)</text>
<rect x="182" y="628" rx="9" width="164" height="30" fill="#1d212a" stroke="#2b313d"/><text x="194" y="644" fill="#8a93a5" font-size="10" dominant-baseline="middle">&#9660;</text><text x="210" y="639" fill="#e8ecf3" font-size="14" font-weight="650" dominant-baseline="middle">FINEST Proposal</text><text x="210" y="651" fill="#8a93a5" font-size="10" dominant-baseline="middle">2/2 done</text>
<circle cx="540" cy="628" r="6.5" fill="#3fbf7f"/>
<text x="556" y="628" fill="#8a93a5" font-size="13" dominant-baseline="middle" text-decoration="line-through">Write the technical part</text>
<circle cx="540" cy="658" r="6.5" fill="#3fbf7f"/>
<text x="556" y="653" fill="#8a93a5" font-size="13" dominant-baseline="middle" text-decoration="line-through">Ask Bahram to start the proposal on NSPRES</text>
<text x="556" y="666" fill="#8a93a5" font-size="10" dominant-baseline="middle">2026-07-08</text>
<rect x="182" y="740" rx="9" width="315.2" height="30" fill="#1d212a" stroke="#2b313d"/><text x="194" y="756" fill="#8a93a5" font-size="10" dominant-baseline="middle">&#9660;</text><text x="210" y="751" fill="#e8ecf3" font-size="14" font-weight="650" dominant-baseline="middle">Off-campus fellowship application</text><text x="210" y="763" fill="#8a93a5" font-size="10" dominant-baseline="middle">2/4 done</text>
<circle cx="540" cy="710" r="11" fill="#ffb020" opacity="0.22"/>
<circle cx="540" cy="710" r="6.5" fill="#ffb020"/>
<text x="556" y="705" fill="#e8ecf3" font-size="13" dominant-baseline="middle">Write the technical part</text>
<text x="556" y="718" fill="#ffb020" font-size="10" dominant-baseline="middle">2026-07-30 &#183; in 6d</text>
<circle cx="540" cy="740" r="6.5" fill="#7d879b"/>
<text x="556" y="740" fill="#e8ecf3" font-size="13" dominant-baseline="middle">Follow up on the recommendation letters</text>
<circle cx="540" cy="770" r="6.5" fill="#3fbf7f"/>
<text x="556" y="765" fill="#8a93a5" font-size="13" dominant-baseline="middle" text-decoration="line-through">Answer George</text>
<text x="556" y="778" fill="#8a93a5" font-size="10" dominant-baseline="middle">2026-07-08</text>
<circle cx="540" cy="800" r="6.5" fill="#3fbf7f"/>
<text x="556" y="800" fill="#8a93a5" font-size="13" dominant-baseline="middle" text-decoration="line-through">Follow up on the IPAC letter from Shooby</text>
<rect x="182" y="882" rx="9" width="222.8" height="30" fill="#1d212a" stroke="#2b313d"/><text x="194" y="898" fill="#8a93a5" font-size="10" dominant-baseline="middle">&#9660;</text><text x="210" y="893" fill="#e8ecf3" font-size="14" font-weight="650" dominant-baseline="middle">Green Card Application</text><text x="210" y="905" fill="#8a93a5" font-size="10" dominant-baseline="middle">0/4 done</text>
<circle cx="540" cy="852" r="6.5" fill="#7d879b"/>
<text x="556" y="852" fill="#e8ecf3" font-size="13" dominant-baseline="middle">RBFI Tab: read the Fable 5 answers and revise</text>
<circle cx="540" cy="882" r="6.5" fill="#7d879b"/>
<text x="556" y="882" fill="#e8ecf3" font-size="13" dominant-baseline="middle">PE Tab: revise the answers based on those from Fable 5</text>
<circle cx="540" cy="912" r="6.5" fill="#7d879b"/>
<text x="556" y="912" fill="#e8ecf3" font-size="13" dominant-baseline="middle">Publication Record Tab: read the Fable 5 answers and revise</text>
<circle cx="540" cy="942" r="6.5" fill="#7d879b"/>
<text x="556" y="942" fill="#e8ecf3" font-size="13" dominant-baseline="middle">Follow up on the MSc diploma with grad division</text>
<rect x="182" y="1084" rx="9" width="189.20000000000002" height="30" fill="#1d212a" stroke="#2b313d"/><text x="194" y="1100" fill="#8a93a5" font-size="10" dominant-baseline="middle">&#9660;</text><text x="210" y="1095" fill="#e8ecf3" font-size="14" font-weight="650" dominant-baseline="middle">Bureaucratic tasks</text><text x="210" y="1107" fill="#8a93a5" font-size="10" dominant-baseline="middle">1/8 done</text>
<circle cx="540" cy="994" r="6.5" fill="#4f9dff"/>
<text x="556" y="989" fill="#e8ecf3" font-size="13" dominant-baseline="middle">Check the status of my federal tax return</text>
<text x="556" y="1002" fill="#8a93a5" font-size="10" dominant-baseline="middle">2026-08-24 &#183; in 31d</text>
<circle cx="540" cy="1024" r="6.5" fill="#7d879b"/>
<text x="556" y="1024" fill="#e8ecf3" font-size="13" dominant-baseline="middle">Book Chicago plane ticket</text>
<circle cx="540" cy="1054" r="6.5" fill="#7d879b"/>
<text x="556" y="1054" fill="#e8ecf3" font-size="13" dominant-baseline="middle">Book the hotel for Chicago trip</text>
<circle cx="540" cy="1084" r="6.5" fill="#7d879b"/>
<text x="556" y="1084" fill="#e8ecf3" font-size="13" dominant-baseline="middle">Call Dr. Amiri's office to reschedule the appointment</text>
<circle cx="540" cy="1114" r="6.5" fill="#7d879b"/>
<text x="556" y="1114" fill="#e8ecf3" font-size="13" dominant-baseline="middle">Call CIBC (1 888 578 1333, in French) to cancel the credit card</text>
<circle cx="540" cy="1144" r="6.5" fill="#7d879b"/>
<text x="556" y="1144" fill="#e8ecf3" font-size="13" dominant-baseline="middle">Go to the dental clinic to discuss the bill</text>
<circle cx="540" cy="1174" r="6.5" fill="#7d879b"/>
<text x="556" y="1174" fill="#e8ecf3" font-size="13" dominant-baseline="middle">Find a dietitian covered by my plan</text>
<circle cx="540" cy="1204" r="6.5" fill="#3fbf7f"/>
<text x="556" y="1204" fill="#8a93a5" font-size="13" dominant-baseline="middle" text-decoration="line-through">Dispute the AliExpress charge on American Express</text>
<rect x="182" y="1256" rx="9" width="290" height="30" fill="#1d212a" stroke="#2b313d"/><text x="194" y="1272" fill="#8a93a5" font-size="10" dominant-baseline="middle">&#9660;</text><text x="210" y="1267" fill="#e8ecf3" font-size="14" font-weight="650" dominant-baseline="middle">The Diplomatic Training Course</text><text x="210" y="1279" fill="#8a93a5" font-size="10" dominant-baseline="middle">0/2 done</text>
<circle cx="540" cy="1256" r="11" fill="#ff5c5c" opacity="0.22"/>
<circle cx="540" cy="1256" r="6.5" fill="#ff5c5c"/>
<text x="556" y="1251" fill="#e8ecf3" font-size="13" dominant-baseline="middle">Read chapter 1</text>
<text x="556" y="1264" fill="#ff5c5c" font-size="10" dominant-baseline="middle">2026-07-13 &#183; 11 days overdue</text>
<circle cx="540" cy="1286" r="11" fill="#ff5c5c" opacity="0.22"/>
<circle cx="540" cy="1286" r="6.5" fill="#ff5c5c"/>
<text x="556" y="1281" fill="#e8ecf3" font-size="13" dominant-baseline="middle">Read chapter 5</text>
<text x="556" y="1294" fill="#ff5c5c" font-size="10" dominant-baseline="middle">2026-07-13 &#183; 11 days overdue</text>
<rect x="182" y="1428" rx="9" width="172.4" height="30" fill="#1d212a" stroke="#2b313d"/><text x="194" y="1444" fill="#8a93a5" font-size="10" dominant-baseline="middle">&#9660;</text><text x="210" y="1439" fill="#e8ecf3" font-size="14" font-weight="650" dominant-baseline="middle">Home Improvement</text><text x="210" y="1451" fill="#8a93a5" font-size="10" dominant-baseline="middle">4/8 done</text>
<circle cx="540" cy="1338" r="6.5" fill="#4f9dff"/>
<text x="556" y="1338" fill="#e8ecf3" font-size="13" dominant-baseline="middle">Checking the i-robot vacuum</text>
<circle cx="540" cy="1368" r="6.5" fill="#7d879b"/>
<text x="556" y="1368" fill="#e8ecf3" font-size="13" dominant-baseline="middle">Clean the carpets</text>
<circle cx="540" cy="1398" r="6.5" fill="#7d879b"/>
<text x="556" y="1398" fill="#e8ecf3" font-size="13" dominant-baseline="middle">Install the drawing in bedroom</text>
<circle cx="540" cy="1428" r="6.5" fill="#7d879b"/>
<text x="556" y="1428" fill="#e8ecf3" font-size="13" dominant-baseline="middle">Install the new shower head</text>
<circle cx="540" cy="1458" r="6.5" fill="#3fbf7f"/>
<text x="556" y="1458" fill="#8a93a5" font-size="13" dominant-baseline="middle" text-decoration="line-through">Sell the coffee and side table</text>
<circle cx="540" cy="1488" r="6.5" fill="#3fbf7f"/>
<text x="556" y="1488" fill="#8a93a5" font-size="13" dominant-baseline="middle" text-decoration="line-through">Unclog the shower drain</text>
<circle cx="540" cy="1518" r="6.5" fill="#3fbf7f"/>
<text x="556" y="1518" fill="#8a93a5" font-size="13" dominant-baseline="middle" text-decoration="line-through">Buy a new side table</text>
<circle cx="540" cy="1548" r="6.5" fill="#3fbf7f"/>
<text x="556" y="1548" fill="#8a93a5" font-size="13" dominant-baseline="middle" text-decoration="line-through">Clean the kitchen sink</text>
<rect x="182" y="1630" rx="9" width="128" height="30" fill="#1d212a" stroke="#2b313d"/><text x="194" y="1646" fill="#8a93a5" font-size="10" dominant-baseline="middle">&#9660;</text><text x="210" y="1641" fill="#e8ecf3" font-size="14" font-weight="650" dominant-baseline="middle">Hobbies</text><text x="210" y="1653" fill="#8a93a5" font-size="10" dominant-baseline="middle">0/4 done</text>
<circle cx="540" cy="1600" r="6.5" fill="#4f9dff"/>
<text x="556" y="1600" fill="#e8ecf3" font-size="13" dominant-baseline="middle">Crochet</text>
<circle cx="540" cy="1630" r="6.5" fill="#4f9dff"/>
<text x="556" y="1630" fill="#e8ecf3" font-size="13" dominant-baseline="middle">Puzzle</text>
<circle cx="540" cy="1660" r="6.5" fill="#7d879b"/>
<text x="556" y="1660" fill="#e8ecf3" font-size="13" dominant-baseline="middle">Sewing the cut T-shirts</text>
<circle cx="540" cy="1690" r="6.5" fill="#7d879b"/>
<text x="556" y="1690" fill="#e8ecf3" font-size="13" dominant-baseline="middle">Sewing the new T-shirt</text>
</g></svg>